<?xml version="1.0" encoding="UTF-8"?>
<svg version="1.1" xmlns="http://www.w3.org/2000/svg" width="512" height="512">
<path d="M0 0 C1.34293196 -0.0048989 2.6858597 -0.01109329 4.0287804 -0.01845789 C7.6901973 -0.0347532 11.35139743 -0.03256098 15.01283777 -0.02708292 C18.97268099 -0.02439989 22.93246807 -0.038968 26.89228821 -0.05117798 C34.63791043 -0.07217813 42.38345771 -0.07677604 50.12910504 -0.07499009 C56.42596305 -0.07368014 62.72279778 -0.07749845 69.01965141 -0.08491516 C70.83650603 -0.08701444 72.65336064 -0.08911204 74.47021526 -0.09120798 C75.37461768 -0.09225151 76.2790201 -0.09329504 77.21082865 -0.09437019 C94.29397685 -0.11324948 111.37708206 -0.11222898 128.46023636 -0.10540086 C144.07920996 -0.09982266 159.69801968 -0.12066674 175.31695498 -0.15376133 C191.37032179 -0.18751155 207.4236101 -0.2026653 223.47701305 -0.1980443 C232.48356173 -0.19580154 241.48995881 -0.20101511 250.49647713 -0.22593689 C258.16140922 -0.24696679 265.82610649 -0.2505249 273.49104828 -0.2316373 C277.39926013 -0.22249121 281.30703434 -0.22130159 285.21521187 -0.24199295 C288.79737304 -0.26074826 292.37873951 -0.25614984 295.96087085 -0.23344713 C297.8607472 -0.22730522 299.76065486 -0.24561665 301.66044241 -0.26498365 C310.23417066 -0.17660339 317.12918265 1.42627305 323.55089575 7.3841691 C330.44600975 14.63465022 331.85393099 21.24854034 331.76699829 30.9549408 C331.76956157 32.00631117 331.77212484 33.05768155 331.77476579 34.14091164 C331.77969966 37.65712702 331.76321681 41.17291121 331.74681091 44.68908691 C331.74596456 47.21225474 331.74643995 49.7354233 331.74813843 52.2585907 C331.74882116 57.68734135 331.7403226 63.11595363 331.72342491 68.54467583 C331.69900994 76.39359699 331.69122709 84.24246588 331.68746094 92.0914209 C331.68090036 104.82680541 331.66094992 117.56213218 331.6325531 130.29748535 C331.60500232 142.66629752 331.58377373 155.03509399 331.57102966 167.40393066 C331.57024149 168.16676247 331.56945332 168.92959427 331.56864127 169.71554219 C331.56472606 173.54256989 331.56093496 177.3695977 331.55720556 181.19662559 C331.52612192 212.92926247 331.47307336 244.66182684 331.40623474 276.39440918 C332.4267115 276.6904303 332.4267115 276.6904303 333.46780396 276.99243164 C334.36360672 277.25592407 335.25940948 277.5194165 336.18235779 277.79089355 C337.06892563 278.05011597 337.95549347 278.30933838 338.868927 278.57641602 C357.7273763 284.65612104 373.49408961 301.44342625 382.84373474 318.23815918 C393.6940428 340.15578145 395.62342663 364.64049452 388.30467224 387.89440918 C384.84963213 397.34561567 380.18939865 406.16452207 374.40623474 414.39440918 C375.84877131 417.76032784 377.73888202 419.90487997 380.40623474 422.39440918 C381.37560974 422.06440918 382.34498474 421.73440918 383.34373474 421.39440918 C390.2154169 419.48252987 395.60386525 419.58693843 402.04904175 422.89141846 C407.02196656 426.06224914 411.01331786 430.43096041 415.14451599 434.60144043 C416.15664478 435.61086912 417.16936623 436.61970387 418.18264771 437.62797546 C420.2944149 439.73387467 422.39885255 441.84676252 424.49827576 443.96496582 C427.17898861 446.66849585 429.87730462 449.35362619 432.58137226 452.03377247 C434.6725295 454.1104236 436.75400258 456.19657233 438.83273888 458.28565025 C439.82369854 459.27926239 440.81759431 460.26995582 441.81455421 461.25754738 C452.37171085 471.73714792 452.37171085 471.73714792 453.83982849 479.76550293 C453.84111755 480.44741699 453.84240662 481.12933105 453.84373474 481.83190918 C453.87273865 482.85091309 453.87273865 482.85091309 453.90232849 483.89050293 C452.47928332 491.07295926 448.21808685 496.22539616 443.09373474 501.20690918 C442.5503949 501.76571777 442.00705505 502.32452637 441.44725037 502.90026855 C437.221836 507.08577346 433.18897175 509.70541065 427.21873474 510.79284668 C411.25800037 510.58645787 399.78738568 494.05524002 389.35984802 483.69812012 C387.55560755 481.91049808 385.74601029 480.12826666 383.93113708 478.35144043 C381.2907275 475.76592998 378.66727155 473.16422977 376.04685974 470.55847168 C375.23952393 469.77380524 374.43218811 468.98913879 373.60038757 468.18069458 C367.87392183 462.4326031 363.9574631 456.96172985 362.96873474 448.76940918 C363.34179239 445.89153586 363.79667209 444.2626569 364.96873474 441.70690918 C366.52959387 438.67094289 366.52959387 438.67094289 366.46873474 436.26940918 C364.74658907 433.23032859 362.16578536 431.50810753 359.40623474 429.39440918 C358.59541443 429.91390137 357.78459412 430.43339355 356.94920349 430.96862793 C349.09663387 435.91419273 341.26046016 440.44300071 332.40623474 443.39440918 C332.40212585 444.70522461 332.39801697 446.01604004 332.39378357 447.36657715 C332.37187539 452.26849735 332.31746504 457.16962815 332.25364685 462.07116699 C332.23056839 464.18534736 332.21609517 466.29964104 332.2106781 468.41394043 C332.20131413 471.46803581 332.16016106 474.5203737 332.11326599 477.57409668 C332.11719864 478.50680389 332.12113129 479.43951111 332.12518311 480.40048218 C331.95572236 488.16631085 329.7568078 494.76497934 324.41680908 500.54940796 C316.36959618 508.15672766 309.14232724 508.83471651 298.42756653 508.78208923 C296.45999781 508.79016754 296.45999781 508.79016754 294.45268023 508.79840904 C290.82221526 508.81284691 287.19197764 508.80862414 283.56150031 508.80124223 C279.64175274 508.79650851 275.7220542 508.80902247 271.80232239 508.81925964 C264.12599279 508.83645121 256.44974504 508.83728661 248.77340119 508.83204674 C242.53082189 508.82800311 236.28826677 508.82945091 230.04568863 508.834795 C229.15672414 508.83554342 228.26775965 508.83629184 227.35185684 508.83706294 C225.54578807 508.83859446 223.73971932 508.84013281 221.93365057 508.84167791 C204.99683184 508.8554052 188.0600593 508.84996451 171.12324162 508.8384927 C155.64509208 508.82856848 140.16706223 508.84148654 124.68893115 508.86542689 C108.78370979 508.88984171 92.87854411 508.89941939 76.97330439 508.89277416 C68.04878615 508.88928615 59.12435984 508.8914859 50.1998558 508.90902519 C42.5993465 508.92377734 34.99899382 508.92434381 27.39848749 508.90695428 C23.52442051 508.89846503 19.65063293 508.89624327 15.77658081 508.91160583 C12.22195218 508.92552641 8.66784033 508.92059657 5.11324103 508.9013666 C3.23528593 508.89587344 1.35730403 508.90981686 -0.52059996 508.9247207 C-16.10795314 508.79090674 -29.11275433 503.21127002 -40.49220276 492.65612793 C-49.65501107 482.79503869 -54.70929579 470.56281471 -54.72798634 457.19092464 C-54.73033857 456.47288014 -54.7326908 455.75483563 -54.73511431 455.0150322 C-54.74178568 452.60240839 -54.74134665 450.18983867 -54.74093628 447.77720642 C-54.74423606 446.03252727 -54.74796187 444.28784888 -54.75207776 442.54317147 C-54.76209283 437.74336713 -54.76581376 432.9435753 -54.76846707 428.14376199 C-54.77237156 422.96906082 -54.78194978 417.79436954 -54.79067993 412.61967468 C-54.81043988 400.12029615 -54.82050981 387.62091681 -54.82940772 375.12152657 C-54.83379125 369.23505529 -54.83915788 363.34858491 -54.84439659 357.46211433 C-54.86140814 337.89384237 -54.87590241 318.32557097 -54.88314533 298.75729275 C-54.88505522 293.67954444 -54.88697555 288.60179614 -54.88893127 283.52404785 C-54.88941501 282.26200242 -54.88989875 280.99995699 -54.89039715 279.69966776 C-54.89869782 259.25444122 -54.92403572 238.80927319 -54.95651195 218.3640722 C-54.98958382 197.37274443 -55.0075942 176.38144639 -55.01078957 155.39009243 C-55.01295451 143.60449633 -55.02170089 131.81898555 -55.04725075 120.03341484 C-55.06895941 109.99653756 -55.07700729 99.95976634 -55.06728397 89.92286824 C-55.06273984 84.80341532 -55.06463226 79.6841812 -55.08404541 74.5647583 C-55.10168147 69.87338301 -55.10067566 65.18238607 -55.08514812 60.49100674 C-55.08277274 58.79848629 -55.08709194 57.10593962 -55.09897677 55.41345923 C-55.20586802 39.17913983 -51.60783497 25.91149406 -40.40626526 13.64440918 C-28.76536602 2.81082063 -15.4063162 -0.06696907 0 0 Z M30.40623474 106.39440918 C30.40623474 115.96440918 30.40623474 125.53440918 30.40623474 135.39440918 C101.68623474 135.39440918 172.96623474 135.39440918 246.40623474 135.39440918 C246.40623474 125.82440918 246.40623474 116.25440918 246.40623474 106.39440918 C175.12623474 106.39440918 103.84623474 106.39440918 30.40623474 106.39440918 Z M250.71873474 315.45690918 C237.14808047 332.85268503 233.30779377 352.18734782 235.80467224 373.85144043 C239.46792088 391.23997779 250.69237733 407.64027899 265.40623474 417.39440918 C283.09346692 427.86937192 302.64247242 431.69418308 322.78123474 426.83190918 C340.28374164 422.03709011 354.4805525 411.60380589 364.40623474 396.39440918 C374.75621707 378.0524042 376.95756033 358.77156415 371.40623474 338.39440918 C364.77529877 319.69176926 351.75292855 305.56681991 334.34373474 296.45690918 C304.8792089 282.75848927 271.97559319 291.2204569 250.71873474 315.45690918 Z M-28.34376526 431.01940918 C-35.1482729 439.41004914 -37.41639307 448.13656793 -37.01173401 458.84362793 C-35.82684203 468.90967289 -30.69607567 477.31190078 -22.84376526 483.64440918 C-14.00358228 489.65740733 -5.99381433 490.98110313 4.57171631 490.90234375 C5.86713527 490.90858371 7.16255424 490.91482368 8.49722832 490.92125273 C12.06802238 490.93785639 15.63838545 490.9297412 19.20918047 490.91730785 C23.06942425 490.90822309 26.92959614 490.92224369 30.78982544 490.93322754 C38.34076517 490.95097841 45.89154552 490.94718888 53.44249139 490.93557698 C59.57828377 490.92653273 65.71403158 490.92532293 71.84982872 490.92967224 C72.72404436 490.93028517 73.59826 490.93089811 74.49896702 490.93152961 C76.27501503 490.93280854 78.05106304 490.93410539 79.82711103 490.93541998 C96.46423031 490.94681484 113.10126129 490.9337275 129.73836609 490.91221851 C144.01515093 490.89433282 158.29180574 490.89746585 172.56858826 490.91589355 C189.15510787 490.93729257 205.7415503 490.94573282 222.32808179 490.9334445 C224.09596104 490.93217031 225.86384031 490.93091283 227.63171959 490.92967224 C228.501525 490.92905514 229.3713304 490.92843804 230.26749355 490.92780223 C236.3987897 490.92434759 242.53003689 490.9301798 248.66132545 490.93959045 C256.1287841 490.95080035 263.59607452 490.94779107 271.06351385 490.92646748 C274.87382335 490.91594579 278.6838522 490.91185427 282.4941597 490.92506409 C286.62157528 490.93915721 290.74828044 490.9223456 294.87567139 490.90234375 C296.08382564 490.91126664 297.2919799 490.92018952 298.53674489 490.9293828 C304.88901255 490.92277324 304.88901255 490.92277324 310.62689495 488.48766327 C313.97273759 484.5515411 313.53586754 481.05556598 313.50389099 476.10534668 C313.50247604 475.28692291 313.5010611 474.46849915 313.49960327 473.62527466 C313.49399764 471.00661593 313.48144422 468.38804214 313.46873474 465.76940918 C313.46372047 463.99597291 313.45915743 462.22253531 313.45506287 460.44909668 C313.44402638 456.09750136 313.42675799 451.74596968 313.40623474 447.39440918 C312.27258484 447.33599854 311.13893494 447.27758789 309.97093201 447.21740723 C308.45065774 447.1346752 306.93039465 447.05173777 305.41014099 446.96862793 C304.66687561 446.93088257 303.92361023 446.89313721 303.15782166 446.85424805 C279.81853603 445.55374423 257.89727663 437.45834086 241.40623474 420.39440918 C241.07623474 419.73440918 240.74623474 419.07440918 240.40623474 418.39440918 C209.52635068 418.3258989 178.64648681 418.27284279 147.76654474 418.24121319 C144.11681889 418.23746129 140.46709318 418.2335783 136.81736755 418.22961426 C136.09080527 418.22882733 135.364243 418.2280404 134.61566368 418.22722962 C122.86760187 418.21419317 111.11958433 418.19054909 99.37154874 418.16295079 C87.30748117 418.13484748 75.2434367 418.11822253 63.17933774 418.1121437 C56.40711692 418.10840492 49.63498821 418.09944955 42.8628006 418.07721901 C36.48365624 418.05679981 30.10465306 418.05058642 23.72547913 418.05508614 C21.38907859 418.05426337 19.05267315 418.04833031 16.71630096 418.03679276 C-8.06665165 417.85402162 -8.06665165 417.85402162 -28.34376526 431.01940918 Z " fill="#F5C837" transform="translate(56.59376525878906,1.6055908203125)"/>
<path d="M0 0 C1.34293196 -0.0048989 2.6858597 -0.01109329 4.0287804 -0.01845789 C7.6901973 -0.0347532 11.35139743 -0.03256098 15.01283777 -0.02708292 C18.97268099 -0.02439989 22.93246807 -0.038968 26.89228821 -0.05117798 C34.63791043 -0.07217813 42.38345771 -0.07677604 50.12910504 -0.07499009 C56.42596305 -0.07368014 62.72279778 -0.07749845 69.01965141 -0.08491516 C70.83650603 -0.08701444 72.65336064 -0.08911204 74.47021526 -0.09120798 C75.37461768 -0.09225151 76.2790201 -0.09329504 77.21082865 -0.09437019 C94.29397685 -0.11324948 111.37708206 -0.11222898 128.46023636 -0.10540086 C144.07920996 -0.09982266 159.69801968 -0.12066674 175.31695498 -0.15376133 C191.37032179 -0.18751155 207.4236101 -0.2026653 223.47701305 -0.1980443 C232.48356173 -0.19580154 241.48995881 -0.20101511 250.49647713 -0.22593689 C258.16140922 -0.24696679 265.82610649 -0.2505249 273.49104828 -0.2316373 C277.39926013 -0.22249121 281.30703434 -0.22130159 285.21521187 -0.24199295 C288.79737304 -0.26074826 292.37873951 -0.25614984 295.96087085 -0.23344713 C297.8607472 -0.22730522 299.76065486 -0.24561665 301.66044241 -0.26498365 C310.23417066 -0.17660339 317.12918265 1.42627305 323.55089575 7.3841691 C330.44600975 14.63465022 331.85393099 21.24854034 331.76699829 30.9549408 C331.76956157 32.00631117 331.77212484 33.05768155 331.77476579 34.14091164 C331.77969966 37.65712702 331.76321681 41.17291121 331.74681091 44.68908691 C331.74596456 47.21225474 331.74643995 49.7354233 331.74813843 52.2585907 C331.74882116 57.68734135 331.7403226 63.11595363 331.72342491 68.54467583 C331.69900994 76.39359699 331.69122709 84.24246588 331.68746094 92.0914209 C331.68090036 104.82680541 331.66094992 117.56213218 331.6325531 130.29748535 C331.60500232 142.66629752 331.58377373 155.03509399 331.57102966 167.40393066 C331.57024149 168.16676247 331.56945332 168.92959427 331.56864127 169.71554219 C331.56472606 173.54256989 331.56093496 177.3695977 331.55720556 181.19662559 C331.52612192 212.92926247 331.47307336 244.66182684 331.40623474 276.39440918 C332.4267115 276.6904303 332.4267115 276.6904303 333.46780396 276.99243164 C334.36360672 277.25592407 335.25940948 277.5194165 336.18235779 277.79089355 C337.06892563 278.05011597 337.95549347 278.30933838 338.868927 278.57641602 C357.7273763 284.65612104 373.49408961 301.44342625 382.84373474 318.23815918 C393.6940428 340.15578145 395.62342663 364.64049452 388.30467224 387.89440918 C384.84963213 397.34561567 380.18939865 406.16452207 374.40623474 414.39440918 C375.84877131 417.76032784 377.73888202 419.90487997 380.40623474 422.39440918 C381.37560974 422.06440918 382.34498474 421.73440918 383.34373474 421.39440918 C390.2154169 419.48252987 395.60386525 419.58693843 402.04904175 422.89141846 C407.02196656 426.06224914 411.01331786 430.43096041 415.14451599 434.60144043 C416.15664478 435.61086912 417.16936623 436.61970387 418.18264771 437.62797546 C420.2944149 439.73387467 422.39885255 441.84676252 424.49827576 443.96496582 C427.17898861 446.66849585 429.87730462 449.35362619 432.58137226 452.03377247 C434.6725295 454.1104236 436.75400258 456.19657233 438.83273888 458.28565025 C439.82369854 459.27926239 440.81759431 460.26995582 441.81455421 461.25754738 C452.37171085 471.73714792 452.37171085 471.73714792 453.83982849 479.76550293 C453.84111755 480.44741699 453.84240662 481.12933105 453.84373474 481.83190918 C453.87273865 482.85091309 453.87273865 482.85091309 453.90232849 483.89050293 C452.47928332 491.07295926 448.21808685 496.22539616 443.09373474 501.20690918 C442.5503949 501.76571777 442.00705505 502.32452637 441.44725037 502.90026855 C437.221836 507.08577346 433.18897175 509.70541065 427.21873474 510.79284668 C411.25800037 510.58645787 399.78738568 494.05524002 389.35984802 483.69812012 C387.55560755 481.91049808 385.74601029 480.12826666 383.93113708 478.35144043 C381.2907275 475.76592998 378.66727155 473.16422977 376.04685974 470.55847168 C375.23952393 469.77380524 374.43218811 468.98913879 373.60038757 468.18069458 C367.87392183 462.4326031 363.9574631 456.96172985 362.96873474 448.76940918 C363.34179239 445.89153586 363.79667209 444.2626569 364.96873474 441.70690918 C366.52959387 438.67094289 366.52959387 438.67094289 366.46873474 436.26940918 C364.74658907 433.23032859 362.16578536 431.50810753 359.40623474 429.39440918 C358.59541443 429.91390137 357.78459412 430.43339355 356.94920349 430.96862793 C349.09663387 435.91419273 341.26046016 440.44300071 332.40623474 443.39440918 C332.40212585 444.70522461 332.39801697 446.01604004 332.39378357 447.36657715 C332.37187539 452.26849735 332.31746504 457.16962815 332.25364685 462.07116699 C332.23056839 464.18534736 332.21609517 466.29964104 332.2106781 468.41394043 C332.20131413 471.46803581 332.16016106 474.5203737 332.11326599 477.57409668 C332.11719864 478.50680389 332.12113129 479.43951111 332.12518311 480.40048218 C331.95572236 488.16631085 329.7568078 494.76497934 324.41680908 500.54940796 C316.36959618 508.15672766 309.14232724 508.83471651 298.42756653 508.78208923 C296.45999781 508.79016754 296.45999781 508.79016754 294.45268023 508.79840904 C290.82221526 508.81284691 287.19197764 508.80862414 283.56150031 508.80124223 C279.64175274 508.79650851 275.7220542 508.80902247 271.80232239 508.81925964 C264.12599279 508.83645121 256.44974504 508.83728661 248.77340119 508.83204674 C242.53082189 508.82800311 236.28826677 508.82945091 230.04568863 508.834795 C229.15672414 508.83554342 228.26775965 508.83629184 227.35185684 508.83706294 C225.54578807 508.83859446 223.73971932 508.84013281 221.93365057 508.84167791 C204.99683184 508.8554052 188.0600593 508.84996451 171.12324162 508.8384927 C155.64509208 508.82856848 140.16706223 508.84148654 124.68893115 508.86542689 C108.78370979 508.88984171 92.87854411 508.89941939 76.97330439 508.89277416 C68.04878615 508.88928615 59.12435984 508.8914859 50.1998558 508.90902519 C42.5993465 508.92377734 34.99899382 508.92434381 27.39848749 508.90695428 C23.52442051 508.89846503 19.65063293 508.89624327 15.77658081 508.91160583 C12.22195218 508.92552641 8.66784033 508.92059657 5.11324103 508.9013666 C3.23528593 508.89587344 1.35730403 508.90981686 -0.52059996 508.9247207 C-16.10795314 508.79090674 -29.11275433 503.21127002 -40.49220276 492.65612793 C-49.65501107 482.79503869 -54.70929579 470.56281471 -54.72798634 457.19092464 C-54.73033857 456.47288014 -54.7326908 455.75483563 -54.73511431 455.0150322 C-54.74178568 452.60240839 -54.74134665 450.18983867 -54.74093628 447.77720642 C-54.74423606 446.03252727 -54.74796187 444.28784888 -54.75207776 442.54317147 C-54.76209283 437.74336713 -54.76581376 432.9435753 -54.76846707 428.14376199 C-54.77237156 422.96906082 -54.78194978 417.79436954 -54.79067993 412.61967468 C-54.81043988 400.12029615 -54.82050981 387.62091681 -54.82940772 375.12152657 C-54.83379125 369.23505529 -54.83915788 363.34858491 -54.84439659 357.46211433 C-54.86140814 337.89384237 -54.87590241 318.32557097 -54.88314533 298.75729275 C-54.88505522 293.67954444 -54.88697555 288.60179614 -54.88893127 283.52404785 C-54.88941501 282.26200242 -54.88989875 280.99995699 -54.89039715 279.69966776 C-54.89869782 259.25444122 -54.92403572 238.80927319 -54.95651195 218.3640722 C-54.98958382 197.37274443 -55.0075942 176.38144639 -55.01078957 155.39009243 C-55.01295451 143.60449633 -55.02170089 131.81898555 -55.04725075 120.03341484 C-55.06895941 109.99653756 -55.07700729 99.95976634 -55.06728397 89.92286824 C-55.06273984 84.80341532 -55.06463226 79.6841812 -55.08404541 74.5647583 C-55.10168147 69.87338301 -55.10067566 65.18238607 -55.08514812 60.49100674 C-55.08277274 58.79848629 -55.08709194 57.10593962 -55.09897677 55.41345923 C-55.20586802 39.17913983 -51.60783497 25.91149406 -40.40626526 13.64440918 C-28.76536602 2.81082063 -15.4063162 -0.06696907 0 0 Z M-30.90626526 29.83190918 C-35.65399435 37.04142373 -37.71975519 43.09415067 -37.71681309 51.78807545 C-37.71880414 53.08688705 -37.72079518 54.38569866 -37.72284657 55.72386819 C-37.71999367 57.16334985 -37.71704808 58.60283132 -37.71401978 60.04231262 C-37.71445583 61.57280421 -37.71533137 63.10329574 -37.71660894 64.63378686 C-37.71884716 68.84108195 -37.71484179 73.04835163 -37.70983088 77.25564349 C-37.70551694 81.79206697 -37.70697348 86.32848899 -37.70773315 90.86491394 C-37.70825779 98.72512973 -37.70511729 106.58533722 -37.69949532 114.44555092 C-37.69137215 125.81013466 -37.68876426 137.17471438 -37.68750732 148.5393007 C-37.68531809 166.97708979 -37.67866149 185.41487445 -37.66920471 203.85266113 C-37.66002727 221.76444476 -37.65294806 239.67622719 -37.6486969 257.5880127 C-37.64843418 258.69188744 -37.64817145 259.79576219 -37.64790077 260.93308768 C-37.64659574 266.47084087 -37.64533203 272.00859406 -37.64408886 277.54634726 C-37.63372026 323.4957043 -37.61610543 369.44505651 -37.59376526 415.39440918 C-36.85263489 414.91592529 -36.11150452 414.43744141 -35.34791565 413.94445801 C-34.36814758 413.31563721 -33.38837952 412.68681641 -32.37892151 412.03894043 C-30.92691345 411.1046521 -30.92691345 411.1046521 -29.4455719 410.15148926 C-19.34405256 403.92765271 -9.21948699 402.09025671 2.5302887 402.11593628 C3.98255728 402.10724768 3.98255728 402.10724768 5.46416461 402.09838355 C8.6807291 402.08149379 11.89714916 402.07851658 15.11375427 402.07556152 C17.43047432 402.06625574 19.74719103 402.0560861 22.06390381 402.04512024 C28.33376577 402.0178796 34.60360534 402.00268839 40.87351084 401.98969221 C47.43318143 401.97403571 53.99280646 401.94725351 60.55244446 401.92166138 C71.55610145 401.87989917 82.55976455 401.84561814 93.5634613 401.81628418 C104.89323216 401.78606214 116.22297804 401.75169518 127.55271912 401.71179199 C128.25203584 401.70933044 128.95135257 401.70686889 129.67186071 401.70433275 C133.18041135 401.69195744 136.6889617 401.67950105 140.19751191 401.66700435 C169.2670502 401.56356967 198.33662287 401.47446903 227.40623474 401.39440918 C226.92936881 399.95999447 226.45217268 398.52568954 225.97483826 397.09143066 C225.5762838 395.89332008 225.5762838 395.89332008 225.16967773 394.67100525 C224.56144392 392.8572448 223.93765535 391.04870254 223.30857849 389.24206543 C215.71008306 367.30794705 216.41680723 344.35208204 226.06639099 323.05847168 C236.76297643 301.79004231 253.82690386 285.53152697 276.49559021 277.6697998 C286.00222923 274.74468011 295.37305588 273.28702884 305.28123474 272.83190918 C306.16037537 272.78872559 307.03951599 272.74554199 307.94529724 272.7010498 C310.09879271 272.59571579 312.25249538 272.49463269 314.40623474 272.39440918 C314.52028796 240.90283867 314.60877798 209.41132689 314.66156139 177.91959812 C314.66781495 174.20205433 314.67428656 170.48451095 314.68089294 166.76696777 C314.6822045 166.02686917 314.68351605 165.28677057 314.68486734 164.52424474 C314.70662629 152.53929442 314.74605046 140.55446397 314.79199872 128.56958477 C314.83874985 116.27276834 314.86652728 103.97601469 314.87667722 91.67911303 C314.88353921 84.09067387 314.90521483 76.50257352 314.94581708 68.91423865 C314.97536148 63.09633124 314.97851226 57.2785979 314.97177315 51.46061325 C314.97315072 49.07330233 314.98312321 46.6859788 315.00226212 44.2987442 C315.02709257 41.04234668 315.02117526 37.78740567 315.00750732 34.53097534 C315.02207153 33.58349721 315.03663574 32.63601908 315.05164129 31.6598295 C315.00216166 27.3067799 314.81088214 24.31196086 312.0561552 20.82337379 C308.40511662 17.47676635 305.89976465 17.26921778 301.12993526 17.26298141 C300.02937611 17.25914027 298.92881695 17.25529912 297.79490751 17.25134158 C295.9739376 17.2526413 295.9739376 17.2526413 294.11618042 17.25396729 C292.18731518 17.2495106 292.18731518 17.2495106 290.21948296 17.24496388 C286.64266583 17.23688521 283.06586876 17.23510383 279.48904359 17.23436642 C275.63405783 17.2325173 271.77908252 17.22497055 267.92410278 17.2182312 C259.48999511 17.20463989 251.05589219 17.19862156 242.62177539 17.19422054 C237.35500726 17.19145874 232.08824096 17.18722143 226.82147408 17.18271637 C212.23902088 17.17052129 197.65656917 17.16022334 183.07411098 17.15684128 C182.14046681 17.15662171 181.20682264 17.15640215 180.24488622 17.15617593 C179.30900155 17.15595765 178.37311688 17.15573937 177.40887207 17.15551448 C175.51240377 17.15507101 173.61593546 17.15462445 171.71946716 17.1541748 C170.7787525 17.15395337 169.83803785 17.15373195 168.86881668 17.15350381 C153.63413807 17.14955787 138.39950736 17.13211115 123.16484725 17.10881528 C107.52307043 17.08509008 91.88131762 17.07263885 76.23952252 17.07147336 C67.45757221 17.07055711 58.67568426 17.06481765 49.89375114 17.04665375 C42.41349615 17.0312368 34.93332276 17.02614159 27.4530549 17.03439185 C23.63815671 17.03829309 19.82342279 17.0373947 16.00854492 17.0233345 C11.86730341 17.00821151 7.72643047 17.01647789 3.58517456 17.0269165 C2.38680967 17.0188601 1.18844478 17.01080369 -0.04623419 17.00250316 C-13.08123858 17.07927972 -21.88583386 20.3238869 -30.90626526 29.83190918 Z M250.71873474 315.45690918 C237.14808047 332.85268503 233.30779377 352.18734782 235.80467224 373.85144043 C239.46792088 391.23997779 250.69237733 407.64027899 265.40623474 417.39440918 C283.09346692 427.86937192 302.64247242 431.69418308 322.78123474 426.83190918 C340.28374164 422.03709011 354.4805525 411.60380589 364.40623474 396.39440918 C374.75621707 378.0524042 376.95756033 358.77156415 371.40623474 338.39440918 C364.77529877 319.69176926 351.75292855 305.56681991 334.34373474 296.45690918 C304.8792089 282.75848927 271.97559319 291.2204569 250.71873474 315.45690918 Z M-28.34376526 431.01940918 C-35.1482729 439.41004914 -37.41639307 448.13656793 -37.01173401 458.84362793 C-35.82684203 468.90967289 -30.69607567 477.31190078 -22.84376526 483.64440918 C-14.00358228 489.65740733 -5.99381433 490.98110313 4.57171631 490.90234375 C5.86713527 490.90858371 7.16255424 490.91482368 8.49722832 490.92125273 C12.06802238 490.93785639 15.63838545 490.9297412 19.20918047 490.91730785 C23.06942425 490.90822309 26.92959614 490.92224369 30.78982544 490.93322754 C38.34076517 490.95097841 45.89154552 490.94718888 53.44249139 490.93557698 C59.57828377 490.92653273 65.71403158 490.92532293 71.84982872 490.92967224 C72.72404436 490.93028517 73.59826 490.93089811 74.49896702 490.93152961 C76.27501503 490.93280854 78.05106304 490.93410539 79.82711103 490.93541998 C96.46423031 490.94681484 113.10126129 490.9337275 129.73836609 490.91221851 C144.01515093 490.89433282 158.29180574 490.89746585 172.56858826 490.91589355 C189.15510787 490.93729257 205.7415503 490.94573282 222.32808179 490.9334445 C224.09596104 490.93217031 225.86384031 490.93091283 227.63171959 490.92967224 C228.501525 490.92905514 229.3713304 490.92843804 230.26749355 490.92780223 C236.3987897 490.92434759 242.53003689 490.9301798 248.66132545 490.93959045 C256.1287841 490.95080035 263.59607452 490.94779107 271.06351385 490.92646748 C274.87382335 490.91594579 278.6838522 490.91185427 282.4941597 490.92506409 C286.62157528 490.93915721 290.74828044 490.9223456 294.87567139 490.90234375 C296.08382564 490.91126664 297.2919799 490.92018952 298.53674489 490.9293828 C304.88901255 490.92277324 304.88901255 490.92277324 310.62689495 488.48766327 C313.97273759 484.5515411 313.53586754 481.05556598 313.50389099 476.10534668 C313.50247604 475.28692291 313.5010611 474.46849915 313.49960327 473.62527466 C313.49399764 471.00661593 313.48144422 468.38804214 313.46873474 465.76940918 C313.46372047 463.99597291 313.45915743 462.22253531 313.45506287 460.44909668 C313.44402638 456.09750136 313.42675799 451.74596968 313.40623474 447.39440918 C312.27258484 447.33599854 311.13893494 447.27758789 309.97093201 447.21740723 C308.45065774 447.1346752 306.93039465 447.05173777 305.41014099 446.96862793 C304.66687561 446.93088257 303.92361023 446.89313721 303.15782166 446.85424805 C279.81853603 445.55374423 257.89727663 437.45834086 241.40623474 420.39440918 C241.07623474 419.73440918 240.74623474 419.07440918 240.40623474 418.39440918 C209.52635068 418.3258989 178.64648681 418.27284279 147.76654474 418.24121319 C144.11681889 418.23746129 140.46709318 418.2335783 136.81736755 418.22961426 C136.09080527 418.22882733 135.364243 418.2280404 134.61566368 418.22722962 C122.86760187 418.21419317 111.11958433 418.19054909 99.37154874 418.16295079 C87.30748117 418.13484748 75.2434367 418.11822253 63.17933774 418.1121437 C56.40711692 418.10840492 49.63498821 418.09944955 42.8628006 418.07721901 C36.48365624 418.05679981 30.10465306 418.05058642 23.72547913 418.05508614 C21.38907859 418.05426337 19.05267315 418.04833031 16.71630096 418.03679276 C-8.06665165 417.85402162 -8.06665165 417.85402162 -28.34376526 431.01940918 Z " fill="#020100" transform="translate(56.59376525878906,1.6055908203125)"/>
<path d="M0 0 C0.97415003 -0.00297112 1.94830007 -0.00594224 2.9519698 -0.0090034 C6.23696527 -0.01771907 9.52192441 -0.01920106 12.80693054 -0.02069092 C15.15376362 -0.02531706 17.50059593 -0.03034144 19.84742737 -0.03573608 C26.90489176 -0.05025357 33.96234835 -0.05624693 41.01982501 -0.0611316 C44.3419955 -0.06370785 47.66416448 -0.06752591 50.98633385 -0.07125092 C62.02760955 -0.08344509 73.0688833 -0.09374393 84.1101656 -0.09712601 C84.81709663 -0.09734557 85.52402767 -0.09756514 86.25238086 -0.09779136 C87.31533947 -0.09811878 87.31533947 -0.09811878 88.39977199 -0.09845281 C89.83578448 -0.09889628 91.27179696 -0.09934284 92.70780945 -0.09979248 C93.42012382 -0.10001391 94.1324382 -0.10023534 94.86633786 -0.10046348 C106.40884504 -0.10441163 117.95128909 -0.12186549 129.49377189 -0.145152 C141.33978187 -0.16885825 153.18576016 -0.18132754 165.03179425 -0.18249393 C171.68470289 -0.18341113 178.33753885 -0.18949232 184.99042702 -0.20731354 C191.24729074 -0.22374727 197.50399814 -0.22597257 203.7608757 -0.21717453 C206.05990072 -0.21640164 208.35893397 -0.22077988 210.657938 -0.23063278 C213.79167806 -0.24327753 216.92485816 -0.23751601 220.05859375 -0.22705078 C221.42960604 -0.23913539 221.42960604 -0.23913539 222.82831556 -0.25146413 C227.60189117 -0.21407097 230.87990891 -0.02186231 234.71977234 3.14044189 C236.90743821 6.4219407 236.97187108 7.38560611 236.9785614 11.190979 C236.98486572 12.21892075 236.99117004 13.24686249 236.99766541 14.30595398 C236.99159271 15.97006065 236.99159271 15.97006065 236.98539734 17.66778564 C236.98731079 18.80824844 236.98922424 19.94871124 236.99119568 21.12373352 C236.99255749 23.53710144 236.98886134 25.95047669 236.98051453 28.36383057 C236.96982505 32.05971745 236.98040517 35.75511715 236.99320984 39.45098877 C236.99188805 41.7940888 236.98932526 44.13718853 236.98539734 46.48028564 C236.9894458 47.58766586 236.99349426 48.69504608 236.99766541 49.83598328 C236.98820892 51.38262413 236.98820892 51.38262413 236.9785614 52.96051025 C236.97697021 53.86635361 236.97537903 54.77219696 236.97373962 55.70549011 C236.69810539 58.34817717 236.16417878 59.91924645 234.71977234 62.14044189 C231.65281351 64.18508111 231.03929735 64.39152223 227.58519173 64.40329742 C226.73932035 64.41097971 225.89344897 64.418662 225.02194512 64.42657709 C224.09248475 64.42484413 223.16302439 64.42311116 222.20539856 64.42132568 C221.21814344 64.42726793 220.23088833 64.43321017 219.21371639 64.43933249 C215.89034304 64.45673963 212.5671135 64.45972571 209.24369812 64.46270752 C206.86715892 64.47196144 204.4906227 64.48201042 202.11408997 64.49279785 C195.64720127 64.5190711 189.18034018 64.53201342 182.71340799 64.54081917 C178.67619583 64.5463436 174.63899325 64.55481818 170.60178757 64.56382751 C159.42579563 64.58821156 148.24981137 64.60881119 137.07379341 64.6155777 C136.00084529 64.6162364 136.00084529 64.6162364 134.90622144 64.6169084 C133.83069772 64.61756323 133.83069772 64.61756323 132.73344624 64.6182313 C131.28048332 64.61911823 129.82752041 64.62001136 128.3745575 64.62091064 C127.65383678 64.6213535 126.93311606 64.62179636 126.19055532 64.62225264 C114.50899533 64.63015083 102.8276847 64.66506591 91.14622106 64.71162969 C79.15553039 64.75904072 67.1649649 64.78398061 55.17417896 64.78631353 C48.44069455 64.78814787 41.70753513 64.79967261 34.97414017 64.83595276 C28.64243235 64.86881851 22.31134244 64.87327253 15.97957993 64.85567474 C13.65312805 64.85412888 11.3266436 64.86288671 9.00027466 64.88259125 C5.82881061 64.90788278 2.65955976 64.89636265 -0.5118866 64.87542725 C-1.43688552 64.89154006 -2.36188444 64.90765286 -3.31491363 64.92425394 C-9.37765685 64.83036803 -9.37765685 64.83036803 -11.96945256 62.84919649 C-14.79801492 59.59844509 -15.9067428 57.03683191 -15.91133118 52.76519775 C-15.92386429 51.7407103 -15.9363974 50.71622284 -15.9493103 49.66069031 C-15.93605209 48.56990677 -15.92279388 47.47912323 -15.90913391 46.35528564 C-15.91154587 45.22143936 -15.91395782 44.08759308 -15.91644287 42.91938782 C-15.91546548 40.52811171 -15.90209782 38.13681268 -15.87715149 35.7456665 C-15.84281045 32.08676323 -15.85650872 28.43027133 -15.87593079 24.77130127 C-15.8690331 22.44511912 -15.85936143 20.1189432 -15.84663391 17.79278564 C-15.85159378 16.69997787 -15.85655365 15.6071701 -15.86166382 14.48124695 C-15.74425838 6.90939861 -15.74425838 6.90939861 -13.36982727 2.97467041 C-9.25226566 -0.63968177 -5.2326822 -0.00492454 0 0 Z M2.71977234 18.14044189 C2.71977234 27.71044189 2.71977234 37.28044189 2.71977234 47.14044189 C73.99977234 47.14044189 145.27977234 47.14044189 218.71977234 47.14044189 C218.71977234 37.57044189 218.71977234 28.00044189 218.71977234 18.14044189 C147.43977234 18.14044189 76.15977234 18.14044189 2.71977234 18.14044189 Z " fill="#050401" transform="translate(84.28022766113281,89.85955810546875)"/>
<path d="M0 0 C0.78968461 -0.00438225 1.57936923 -0.00876451 2.39298368 -0.01327956 C5.05375986 -0.02669318 7.71450291 -0.03285216 10.37530518 -0.03897095 C12.27717235 -0.04686989 14.17903802 -0.05513871 16.0809021 -0.06375122 C22.33950362 -0.08999527 28.59811191 -0.1052812 34.85675049 -0.11953735 C37.00926976 -0.12489605 39.16178899 -0.13027355 41.31430817 -0.13566971 C50.26674698 -0.15730189 59.21918396 -0.17603942 68.1716423 -0.1872921 C81.01176624 -0.20353611 93.85158778 -0.23672114 106.6915977 -0.29369295 C115.71416251 -0.33236478 124.73664636 -0.35192153 133.75929189 -0.35721266 C139.15087077 -0.36086988 144.5421273 -0.37293062 149.93361664 -0.4053154 C155.00620591 -0.43534738 160.07827697 -0.44172519 165.15093613 -0.42993164 C167.01255345 -0.4297105 168.87419448 -0.43804911 170.73572922 -0.45558548 C173.27838384 -0.478234 175.81915251 -0.47000331 178.36181641 -0.45410156 C179.46582043 -0.47492469 179.46582043 -0.47492469 180.59212756 -0.49616849 C184.41553785 -0.43728814 186.92215984 0.15578234 189.90037918 2.47315025 C192.43487549 5.15390015 192.43487549 5.15390015 193.05987549 8.65390015 C192.3505087 12.62635416 191.26255841 14.32621722 188.43487549 17.15390015 C185.38573549 18.67847015 182.20842166 18.29822978 178.86302185 18.29434204 C178.07263167 18.29731316 177.28224149 18.30028429 176.4679001 18.30334544 C173.80478172 18.31205532 171.14170817 18.31354262 168.47857666 18.31503296 C166.57508752 18.31965952 164.67159931 18.32468396 162.76811218 18.33007812 C157.58624233 18.34321991 152.40438544 18.34965057 147.22250152 18.35408878 C143.98716732 18.35701671 140.75183669 18.36112098 137.51650429 18.36559296 C127.40001605 18.37927271 117.28353594 18.38893697 107.1670391 18.39279485 C95.47774338 18.39727661 83.78856455 18.41482802 72.09930438 18.44379544 C63.07165733 18.46539264 54.04404321 18.47549808 45.01637059 18.47683597 C39.62100285 18.47788542 34.22574489 18.48382307 28.83040428 18.50165558 C23.75544671 18.51810229 18.68068185 18.52030831 13.60570717 18.51151657 C11.74207163 18.51074436 9.87842589 18.515113 8.01481628 18.52497482 C5.47220649 18.53764157 2.93028467 18.53184645 0.38768005 18.52139282 C-0.35123547 18.52944923 -1.09015099 18.53750563 -1.85145789 18.54580617 C-6.26622383 18.5033042 -9.03776403 17.8393525 -12.56512451 15.15390015 C-14.4937629 12.61160409 -14.57414742 11.37044997 -14.44012451 8.15390015 C-13.44301152 4.73522703 -12.29270341 3.38555561 -9.56512451 1.15390015 C-6.51835959 -0.36948232 -3.3432246 0.00223393 0 0 Z " fill="#0C0A02" transform="translate(83.56512451171875,246.84609985351563)"/>
<path d="M0 0 C1.28992355 -0.00890762 2.57984711 -0.01781525 3.90885925 -0.0269928 C7.44015067 -0.05004189 10.97035912 -0.0353754 14.50161552 -0.01252341 C18.20018901 0.00641493 21.89869083 -0.00476923 25.59729004 -0.01142883 C31.80803598 -0.01776637 38.01834884 0.00048412 44.22900391 0.03320312 C51.4052821 0.07069706 58.58073992 0.06891841 65.75706148 0.04616195 C72.66575528 0.02519969 79.57414642 0.03249426 86.48283386 0.0524807 C89.42059494 0.06045897 92.35809946 0.05848472 95.29585266 0.04845619 C99.39952584 0.03592843 103.50190918 0.06467348 107.60546875 0.09765625 C108.82328537 0.08910614 110.04110199 0.08055603 111.29582214 0.07174683 C120.45597912 0.19902334 120.45597912 0.19902334 123.56115723 3.11442566 C125.71502414 6.3869122 126.02370283 7.91533294 125.30273438 11.76049805 C123.50279663 14.46040466 122.21896138 16.30238455 119.30273438 17.76049805 C117.5783787 17.86421229 115.85004702 17.90434722 114.12260437 17.91439819 C113.02482666 17.92299866 111.92704895 17.93159912 110.79600525 17.94046021 C109.58610428 17.94472015 108.37620331 17.9489801 107.12963867 17.95336914 C105.85966034 17.96154663 104.58968201 17.96972412 103.28121948 17.97814941 C99.0631523 18.00437222 94.84507517 18.01967707 90.62695312 18.03393555 C89.17524522 18.03929508 87.72353738 18.04467259 86.27182961 18.0500679 C80.23346028 18.07169682 74.19509363 18.09043382 68.15669537 18.10169029 C59.50096916 18.11793165 50.84569172 18.15111313 42.1901347 18.20809114 C36.10514081 18.24678284 30.02026699 18.26632202 23.93515331 18.27161086 C20.30020499 18.2752654 16.66573525 18.28729633 13.03092003 18.31971359 C8.97501281 18.35536782 4.92007077 18.35142546 0.86401367 18.34399414 C-0.33981461 18.36039948 -1.54364288 18.37680481 -2.78395081 18.39370728 C-10.91564894 18.33256001 -10.91564894 18.33256001 -14.91203308 15.40762329 C-17.03200622 12.26414798 -17.85281678 10.57150131 -17.69726562 6.76049805 C-13.54864463 -0.84800285 -8.04441847 -0.09060536 0 0 Z " fill="#030200" transform="translate(86.697265625,289.239501953125)"/>
<path d="M0 0 C2.75211478 1.07457079 4.26513506 2.56953117 6.36665344 4.64656067 C7.19042984 5.4544252 8.01420624 6.26228973 8.86294556 7.09463501 C9.74226242 7.97375046 10.62157928 8.85286591 11.52754211 9.75862122 C12.43429184 10.65775742 13.34104156 11.55689362 14.27526855 12.48327637 C16.1897663 14.38696502 18.10065415 16.29364462 20.00679016 18.2056427 C22.45264307 20.65740495 24.91628732 23.09038907 27.38518238 25.51891804 C29.73569283 27.83741089 32.06804611 30.17402095 34.40254211 32.50862122 C35.73669914 33.81818535 35.73669914 33.81818535 37.09780884 35.15420532 C37.90582443 35.97152634 38.71384003 36.78884735 39.54634094 37.63093567 C40.26485733 38.34739761 40.98337372 39.06385956 41.72366333 39.80203247 C43.13301086 41.83283997 43.13301086 41.83283997 42.96386719 43.95947266 C41.83095643 46.51389502 40.27810923 48.15868634 38.32051086 50.14533997 C37.63344055 50.86334778 36.94637024 51.58135559 36.23847961 52.32112122 C34.13301086 53.83283997 34.13301086 53.83283997 32.26602173 53.66567993 C29.51390695 52.59110914 28.00088667 51.09614876 25.89936829 49.01911926 C25.07559189 48.21125473 24.25181549 47.4033902 23.40307617 46.57104492 C22.52375931 45.69192947 21.64444244 44.81281403 20.73847961 43.90705872 C19.37835503 42.55835442 19.37835503 42.55835442 17.99075317 41.18240356 C16.07625543 39.27871491 14.16536758 37.37203532 12.25923157 35.46003723 C9.81337866 33.00827499 7.34973441 30.57529086 4.88083935 28.14676189 C2.53032889 25.82826905 0.19797562 23.49165898 -2.13652039 21.15705872 C-3.0259584 20.28401596 -3.91539642 19.41097321 -4.83178711 18.51147461 C-5.6398027 17.69415359 -6.4478183 16.87683258 -7.28031921 16.03474426 C-8.3580938 14.96005135 -8.3580938 14.96005135 -9.4576416 13.86364746 C-10.86698914 11.83283997 -10.86698914 11.83283997 -10.69784546 9.70620728 C-9.5649347 7.15178491 -8.0120875 5.50699359 -6.05448914 3.52033997 C-5.02388367 2.44332825 -5.02388367 2.44332825 -3.97245789 1.34455872 C-1.86698914 -0.16716003 -1.86698914 -0.16716003 0 0 Z " fill="#54B3F2" transform="translate(448.8669891357422,440.1671600341797)"/>
<path d="M0 0 C0.66 0.33 1.32 0.66 2 1 C-2.62 5.62 -7.24 10.24 -12 15 C-12 10.09687565 -8.29800369 7.38658643 -5 4 C-3.37458956 2.61667196 -1.72614587 1.25537882 0 0 Z " fill="#39300C" transform="translate(23,10)"/>
</svg>
